<svg xmlns="http://www.w3.org/2000/svg" xmlns:xlink="http://www.w3.org/1999/xlink" contentStyleType="text/css" data-diagram-type="DESCRIPTION" height="704px" preserveAspectRatio="none" style="width:967px;height:704px;background:#FFFFFF;" version="1.1" viewBox="0 0 967 704" width="967px" zoomAndPan="magnify"><?plantuml 1.2026.6?><defs/><g><g class="title" data-source-line="1"><text fill="#000000" font-family="sans-serif" font-size="14" font-weight="700" lengthAdjust="spacing" textLength="228.1016" x="366.4342" y="23.5352">Trust Vault &#8212; Secure Your Files</text></g><!--cluster TVault--><g class="cluster" data-qualified-name="TVault" data-source-line="11" id="ent0003"><rect fill="#ADD8E6" height="183" rx="7.5" ry="7.5" style="stroke:#181818;stroke-width:1;" width="481.56" x="181.84" y="123.4583"/><text fill="#000000" font-family="sans-serif" font-size="14" font-weight="700" lengthAdjust="spacing" textLength="80.8555" x="382.1923" y="138.9934">Trust Vault</text></g><!--cluster Access--><g class="cluster" data-qualified-name="Access" data-source-line="19" id="ent0008"><rect fill="#FFFFE0" height="199" rx="7.5" ry="7.5" style="stroke:#181818;stroke-width:1;" width="468.8" x="485.17" y="491.4583"/><text fill="#000000" font-family="sans-serif" font-size="14" font-weight="700" lengthAdjust="spacing" textLength="88.0811" x="675.5295" y="506.9934">Access Keys</text></g><!--entity Compress--><g class="entity" data-qualified-name="TVault.Compress" data-source-line="12" id="ent0004"><rect fill="#F1F1F1" height="22.4883" rx="7.5" ry="7.5" style="stroke:#181818;stroke-width:0.5;" width="87.9697" x="205.84" y="240.2183"/><text fill="#000000" font-family="sans-serif" font-size="14" lengthAdjust="spacing" textLength="67.9697" x="215.84" y="256.7534">Compress</text></g><!--entity Encrypt\nAES-256--><g class="entity" data-qualified-name="TVault.Encrypt.nAES-256" data-source-line="13" id="ent0005"><rect fill="#F1F1F1" height="38.9766" rx="7.5" ry="7.5" style="stroke:#181818;stroke-width:0.5;" width="79.4453" x="210.1" y="165.9683"/><text fill="#000000" font-family="sans-serif" font-size="14" lengthAdjust="spacing" textLength="50.5381" x="224.5536" y="182.5034">Encrypt</text><text fill="#000000" font-family="sans-serif" font-size="14" lengthAdjust="spacing" textLength="59.4453" x="220.1" y="198.9917">AES-256</text></g><!--entity Protect Access--><g class="entity" data-qualified-name="TVault.Protect Access" data-source-line="14" id="ent0006"><rect fill="#F1F1F1" height="22.4883" rx="7.5" ry="7.5" style="stroke:#181818;stroke-width:0.5;" width="118.0137" x="521.38" y="240.2183"/><text fill="#000000" font-family="sans-serif" font-size="14" lengthAdjust="spacing" textLength="98.0137" x="531.38" y="256.7534">Protect Access</text></g><!--entity Password\nsimple access--><g class="entity" data-qualified-name="Access.Password.nsimple access" data-source-line="20" id="ent0009"><rect fill="#F1F1F1" height="38.9766" rx="7.5" ry="7.5" style="stroke:#181818;stroke-width:0.5;" width="113.4883" x="523.65" y="627.9683"/><text fill="#000000" font-family="sans-serif" font-size="14" lengthAdjust="spacing" textLength="63.6699" x="548.5592" y="644.5034">Password</text><text fill="#000000" font-family="sans-serif" font-size="14" lengthAdjust="spacing" textLength="93.4883" x="533.65" y="660.9917">simple access</text></g><!--entity Master Token\none protected key--><g class="entity" data-qualified-name="Access.Master Token.none protected key" data-source-line="21" id="ent0010"><rect fill="#F1F1F1" height="38.9766" rx="7.5" ry="7.5" style="stroke:#181818;stroke-width:0.5;" width="142.4385" x="509.17" y="553.9683"/><text fill="#000000" font-family="sans-serif" font-size="14" lengthAdjust="spacing" textLength="92.2441" x="534.2672" y="570.5034">Master Token</text><text fill="#000000" font-family="sans-serif" font-size="14" lengthAdjust="spacing" textLength="122.4385" x="519.17" y="586.9917">one protected key</text></g><!--entity Share Tokens\nsplit key, e.g. 3 of 5--><g class="entity" data-qualified-name="Access.Share Tokens.nsplit key. e.g. 3 of 5" data-source-line="22" id="ent0011"><rect fill="#F1F1F1" height="38.9766" rx="7.5" ry="7.5" style="stroke:#181818;stroke-width:0.5;" width="155.9941" x="773.97" y="627.9683"/><text fill="#000000" font-family="sans-serif" font-size="14" lengthAdjust="spacing" textLength="91.1777" x="806.3782" y="644.5034">Share Tokens</text><text fill="#000000" font-family="sans-serif" font-size="14" lengthAdjust="spacing" textLength="135.9941" x="783.97" y="660.9917">split key, e.g. 3 of 5</text></g><!--entity Files--><g class="entity" data-qualified-name="Files" data-source-line="8" id="ent0001"><path d="M26.07,235.2183 L57.07,235.2183 A11.25,11.25 0 0 1 64.57,242.7183 L71.57,256.2183 L107.7751,256.2183 A7.5,7.5 0 0 1 115.2751,263.7183 L115.2751,282.2066 A7.5,7.5 0 0 1 107.7751,289.7066 L26.07,289.7066 A7.5,7.5 0 0 1 18.57,282.2066 L18.57,242.7183 A7.5,7.5 0 0 1 26.07,235.2183" fill="#F1F1F1" style="stroke:#181818;stroke-width:0.5;"/><line style="stroke:#181818;stroke-width:0.5;" x1="18.57" x2="71.57" y1="256.2183" y2="256.2183"/><text fill="#000000" font-family="sans-serif" font-size="14" lengthAdjust="spacing" textLength="66.7051" x="28.57" y="276.7534">Your Files</text></g><!--entity Password--><g class="entity" data-qualified-name="Password" data-source-line="9" id="ent0002"><rect fill="#F1F1F1" height="22.4883" rx="7.5" ry="7.5" style="stroke:#181818;stroke-width:0.5;" width="119.8389" x="7" y="324.2183"/><text fill="#000000" font-family="sans-serif" font-size="14" lengthAdjust="spacing" textLength="99.8389" x="17" y="340.7534">Your Password</text></g><!--entity Container--><g class="entity" data-qualified-name="Container" data-source-line="17" id="ent0007"><path d="M501.5,340.4683 C501.5,330.4683 580.3926,330.4683 580.3926,330.4683 C580.3926,330.4683 659.2852,330.4683 659.2852,340.4683 L659.2852,382.4448 C659.2852,392.4448 580.3926,392.4448 580.3926,392.4448 C580.3926,392.4448 501.5,392.4448 501.5,382.4448 L501.5,340.4683" fill="#90EE90" style="stroke:#181818;stroke-width:0.5;"/><path d="M501.5,340.4683 C501.5,350.4683 580.3926,350.4683 580.3926,350.4683 C580.3926,350.4683 659.2852,350.4683 659.2852,340.4683" fill="none" style="stroke:#181818;stroke-width:0.5;"/><text fill="#000000" font-family="sans-serif" font-size="14" lengthAdjust="spacing" textLength="137.7852" x="511.5" y="368.0034">Encrypted Container</text><text fill="#000000" font-family="sans-serif" font-size="14" lengthAdjust="spacing" textLength="26.1953" x="567.2949" y="384.4917">.tvlt</text></g><g class="entity" data-qualified-name="GMN16" data-source-line="32" id="ent0017"><path d="M447.81,434.6483 L447.81,460.2694 A7.5,7.5 0 0 0 455.31,467.7694 L705.4726,467.7694 A7.5,7.5 0 0 0 712.9726,460.2694 L712.9726,437.1483 L702.9726,427.1483 L584.39,427.1483 L580.39,392.9283 L576.39,427.1483 L455.31,427.1483 A7.5,7.5 0 0 0 447.81,434.6483" fill="#FEFFDD" style="stroke:#181818;stroke-width:0.5;"/><path d="M702.9726,427.1483 L702.9726,433.3983 A3.75,3.75 0 0 0 706.7226,437.1483 L712.9726,437.1483 L702.9726,427.1483" fill="#FEFFDD" style="stroke:#181818;stroke-width:0.5;"/><text fill="#000000" font-family="sans-serif" font-size="13" lengthAdjust="spacing" textLength="198.7134" x="476.5346" y="444.7166">Your files are stored encrypted.</text><text fill="#000000" font-family="sans-serif" font-size="13" lengthAdjust="spacing" textLength="244.1626" x="453.81" y="460.0272">Nobody can read them without access.</text></g><g class="entity" data-qualified-name="GMN19" data-source-line="37" id="ent0020"><path d="M451.07,50.9883 L451.07,91.9199 A7.5,7.5 0 0 0 458.57,99.4199 L702.2136,99.4199 A7.5,7.5 0 0 0 709.7136,91.9199 L709.7136,53.4883 L699.7136,43.4883 L458.57,43.4883 A7.5,7.5 0 0 0 451.07,50.9883" fill="#FEFFDD" style="stroke:#181818;stroke-width:0.5;"/><path d="M699.7136,43.4883 L699.7136,49.7383 A3.75,3.75 0 0 0 703.4636,53.4883 L709.7136,53.4883 L699.7136,43.4883" fill="#FEFFDD" style="stroke:#181818;stroke-width:1;"/><text fill="#000000" font-family="sans-serif" font-size="13" lengthAdjust="spacing" textLength="234.2539" x="458.7648" y="61.0566">Choose how the container is opened:</text><text fill="#000000" font-family="sans-serif" font-size="13" lengthAdjust="spacing" textLength="200.0972" x="475.8432" y="76.3672">just a password, a single token,</text><text fill="#000000" font-family="sans-serif" font-size="13" lengthAdjust="spacing" textLength="237.6436" x="457.07" y="91.6777">or a key split between several people.</text></g><!--link Files to TVault--><g class="link" data-entity-1="ent0001" data-entity-2="ent0003" data-link-type="dependency" data-source-line="25" id="lnk12"><path d="M115.45,271.9183 C128.64,274.5433 143.4156,277.4839 158.1977,280.4258 C165.5887,281.8967 172.9813,283.368 180.1781,284.8002 C180.6279,284.8898 176.1731,284.0032 176.6213,284.0924" fill="none" id="Files-to-TVault" style="stroke:#181818;stroke-width:1;"/><polygon fill="#181818" points="181.5252,285.0683,173.479,279.3886,176.6213,284.0924,171.9175,287.2347,181.5252,285.0683" style="stroke:#181818;stroke-width:1;stroke-linejoin:miter;stroke-miterlimit:10;"/></g><!--link Password to TVault--><g class="link" data-entity-1="ent0002" data-entity-2="ent0003" data-link-type="dependency" data-source-line="26" id="lnk13"><path d="M125.16,323.7483 C151.245,318.4133 181.61,312.2033 205.7225,307.272 C206.476,307.1179 207.2234,306.9651 207.9644,306.8135 C208.3349,306.7378 208.7038,306.6623 209.071,306.5872 C209.2546,306.5497 204.5392,307.514 204.722,307.4766" fill="none" id="Password-to-TVault" style="stroke:#181818;stroke-width:1;"/><polygon fill="#181818" points="209.6206,306.4748,200.0017,304.3592,204.722,307.4766,201.6046,312.197,209.6206,306.4748" style="stroke:#181818;stroke-width:1;stroke-linejoin:miter;stroke-miterlimit:10;"/></g><!--link TVault to Container--><g class="link" data-entity-1="ent0003" data-entity-2="ent0007" data-link-type="dependency" data-source-line="28" id="lnk14"><path d="M292.94,306.5341 C293.5429,306.6497 294.1509,306.7663 294.7638,306.8838 C295.9897,307.1189 297.2354,307.3577 298.5001,307.6003 C301.0295,308.0853 303.635,308.5849 306.3105,309.0979 C317.0123,311.1501 328.8331,313.4167 341.3775,315.822 C391.555,325.4433 448.3994,336.3422 496.4294,345.5472" fill="none" id="TVault-to-Container" style="stroke:#181818;stroke-width:1;"/><polygon fill="#181818" points="501.34,346.4883,493.2538,340.8657,496.4294,345.5472,491.748,348.7228,501.34,346.4883" style="stroke:#181818;stroke-width:1;stroke-linejoin:miter;stroke-miterlimit:10;"/><text fill="#000000" font-family="sans-serif" font-size="13" lengthAdjust="spacing" textLength="92.0537" x="324.81" y="310.2466">protected data</text></g><!--link TVault to Access--><g class="link" data-entity-1="ent0003" data-entity-2="ent0008" data-link-type="dependency" data-source-line="29" id="lnk15"><path d="M256.7375,306.5014 C256.8362,306.633 256.9361,306.766 257.0371,306.9004 C257.4414,307.4382 257.8644,307.9993 258.3059,308.5828 C259.1889,309.7498 260.1459,311.0068 261.1747,312.3479 C263.2323,315.03 265.5771,318.0487 268.1911,321.3573 C278.6472,334.592 293.4119,352.467 311.3438,372.0083 C347.2075,411.0908 395.74,456.8383 447.81,485.4583 C454.3113,489.032 461.2048,492.2259 468.2958,495.0794 C471.8413,496.5061 475.4361,497.8477 479.0558,499.1091 C480.8657,499.7398 477.9266,498.8052 479.7459,499.3964" fill="none" id="TVault-to-Access" style="stroke:#181818;stroke-width:1;"/><polygon fill="#181818" points="484.5011,500.9417,477.178,494.356,479.7459,499.3964,474.7055,501.9643,484.5011,500.9417" style="stroke:#181818;stroke-width:1;stroke-linejoin:miter;stroke-miterlimit:10;"/><text fill="#000000" font-family="sans-serif" font-size="13" lengthAdjust="spacing" textLength="83.167" x="329.31" y="386.1266">ways to open</text></g><!--link Access to GMN19--><g class="link" data-entity-1="ent0008" data-entity-2="ent0020" data-link-type="association" data-source-line="37" id="lnk21"><path d="M484.2678,520.1853 C481.4957,519.8709 478.7075,519.5169 475.91,519.1201 C470.3149,518.3265 464.6822,517.3614 459.0641,516.1976 C447.828,513.87 436.6503,510.748 425.9494,506.6152 C404.5475,498.3495 385.0525,486.0408 370.81,467.9583 C288.31,363.2183 298.9,280.2383 370.81,167.9583 C391.39,135.8283 425.67,114.2483 460.6,99.8183" fill="none" id="Access-GMN19" style="stroke:#181818;stroke-width:1;stroke-dasharray:7,7;"/></g><?plantuml-src PPB1gjim44Nt-eeXtIQ1jgIBB0eXl6vAouE4GY4RnHhRQcIDaSRFDQNGZ-WNzaiwifNOfPiGZwvcphqZjkmGpg6B35zqvnZ-_FeD9oowWF2LkW0VhCEeLBnPt-gW6p1O9k4Pl_F1sSetw1aA-S6mKCLQ6-gjhw3KBkBY953dJK71Ou3NE-MmP622OAkQmTY01LloIfNaZ4XMCyKATCmyXGuc7pth67iAPZozVoYL-cXVYRlLmjueEazENxaqykewX1yAO6fvfAOD6EFgKNdoHHXQllZ3qsdpPlTkFdaEn3853aKntlYfbD6ihphYuneQE99dRSNknM_v9JCyYXcZ2eZ-7-gfAtp4OJAUloVvWCvHl-2-6x_uQ9jMxkiCTHTyqb4s16UweRzuyWZjX2-4DnncuQdMiljH5wLRwomdmHfmMstXBL09kz7hk0dORDxdGDMTOLbJEUnKcZtl5yDJP4jLzhc7NWynlGngKp9Uz70bPceImgEN6Xz1ER8ayCWKf2lUuz-gptGbCuWx3m6r0QwnWTvoJHtdcBOAlO4quhz14uuwraIorbf2b_jGFApOE0AYsQjlwPbfQ7CCQ_aVxRXCJcck5GKfIPOmfNf5xcNh4F45WtRG8idcPfQ_?></g></svg>