<svg xmlns="http://www.w3.org/2000/svg" xmlns:xlink="http://www.w3.org/1999/xlink" contentStyleType="text/css" data-diagram-type="SEQUENCE" height="1090px" preserveAspectRatio="none" style="width:1098px;height:1090px;background:#FFFFFF;" version="1.1" viewBox="0 0 1098 1090" width="1098px" zoomAndPan="magnify"><?plantuml 1.2026.6?><defs/><g><g class="title" data-source-line="1"><text fill="#000000" font-family="sans-serif" font-size="14" font-weight="700" lengthAdjust="spacing" textLength="396.9014" x="347.4219" y="28.5352">Master Token: Container Creation and Token Wrapping</text></g><g class="participant-lifeline" data-entity-uid="part1" data-qualified-name="User" data-source-line="3" id="part1-lifeline"><g><title>User</title><rect fill="#000000" fill-opacity="0.00000" height="888.627" width="8" x="33.1826" y="118.9766"/><line style="stroke:#181818;stroke-width:0.5;stroke-dasharray:5,5;" x1="37" x2="37" y1="118.9766" y2="1007.6035"/></g></g><g class="participant-lifeline" data-entity-uid="part2" data-qualified-name="App" data-source-line="4" id="part2-lifeline"><g><title>Application</title><rect fill="#000000" fill-opacity="0.00000" height="888.627" width="8" x="220.5396" y="118.9766"/><line style="stroke:#181818;stroke-width:0.5;stroke-dasharray:5,5;" x1="224.1147" x2="224.1147" y1="118.9766" y2="1007.6035"/></g></g><g class="participant-lifeline" data-entity-uid="part3" data-qualified-name="KDF" data-source-line="5" id="part3-lifeline"><g><title>Key Derivation</title><rect fill="#000000" fill-opacity="0.00000" height="888.627" width="8" x="471.2397" y="118.9766"/><line style="stroke:#181818;stroke-width:0.5;stroke-dasharray:5,5;" x1="475.0928" x2="475.0928" y1="118.9766" y2="1007.6035"/></g></g><g class="participant-lifeline" data-entity-uid="part4" data-qualified-name="Enc" data-source-line="6" id="part4-lifeline"><g><title>Encryption .AES-GCM.</title><rect fill="#000000" fill-opacity="0.00000" height="888.627" width="8" x="619.4658" y="118.9766"/><line style="stroke:#181818;stroke-width:0.5;stroke-dasharray:5,5;" x1="623.3867" x2="623.3867" y1="118.9766" y2="1007.6035"/></g></g><g class="participant-lifeline" data-entity-uid="part5" data-qualified-name="Wrap" data-source-line="7" id="part5-lifeline"><g><title>Token Wrapper .AES-CTR . Base64.</title><rect fill="#000000" fill-opacity="0.00000" height="888.627" width="8" x="841.2295" y="118.9766"/><line style="stroke:#181818;stroke-width:0.5;stroke-dasharray:5,5;" x1="844.5449" x2="844.5449" y1="118.9766" y2="1007.6035"/></g></g><g class="participant-lifeline" data-entity-uid="part6" data-qualified-name="Container" data-source-line="8" id="part6-lifeline"><g><title>Container .tvlt</title><rect fill="#000000" fill-opacity="0.00000" height="888.627" width="8" x="1032.3296" y="118.9766"/><line style="stroke:#181818;stroke-width:0.5;stroke-dasharray:5,5;" x1="1035.9141" x2="1035.9141" y1="118.9766" y2="1007.6035"/></g></g><g class="participant participant-head" data-entity-uid="part1" data-qualified-name="User" data-source-line="3" id="part1-head"><text fill="#000000" font-family="sans-serif" font-size="14" lengthAdjust="spacing" textLength="30.3652" x="19" y="116.0234">User</text><ellipse cx="37.1826" cy="50.9883" fill="#E2E2F0" rx="8" ry="8" style="stroke:#181818;stroke-width:0.5;"/><path d="M37.1826,58.9883 L37.1826,85.9883 M24.1826,66.9883 L50.1826,66.9883 M37.1826,85.9883 L24.1826,100.9883 M37.1826,85.9883 L50.1826,100.9883" fill="none" style="stroke:#181818;stroke-width:0.5;"/></g><g class="participant participant-tail" data-entity-uid="part1" data-qualified-name="User" data-source-line="3" id="part1-tail"><text fill="#000000" font-family="sans-serif" font-size="14" lengthAdjust="spacing" textLength="30.3652" x="19" y="1020.1387">User</text><ellipse cx="37.1826" cy="1031.5918" fill="#E2E2F0" rx="8" ry="8" style="stroke:#181818;stroke-width:0.5;"/><path d="M37.1826,1039.5918 L37.1826,1066.5918 M24.1826,1047.5918 L50.1826,1047.5918 M37.1826,1066.5918 L24.1826,1081.5918 M37.1826,1066.5918 L50.1826,1081.5918" fill="none" style="stroke:#181818;stroke-width:0.5;"/></g><g class="participant participant-head" data-entity-uid="part2" data-qualified-name="App" data-source-line="4" id="part2-head"><rect fill="#E2E2F0" height="30.4883" rx="2.5" ry="2.5" style="stroke:#181818;stroke-width:0.5;" width="90.8496" x="179.1147" y="87.4883"/><text fill="#000000" font-family="sans-serif" font-size="14" lengthAdjust="spacing" textLength="76.8496" x="186.1147" y="108.0234">Application</text></g><g class="participant participant-tail" data-entity-uid="part2" data-qualified-name="App" data-source-line="4" id="part2-tail"><rect fill="#E2E2F0" height="30.4883" rx="2.5" ry="2.5" style="stroke:#181818;stroke-width:0.5;" width="90.8496" x="179.1147" y="1006.6035"/><text fill="#000000" font-family="sans-serif" font-size="14" lengthAdjust="spacing" textLength="76.8496" x="186.1147" y="1027.1387">Application</text></g><g class="participant participant-head" data-entity-uid="part3" data-qualified-name="KDF" data-source-line="5" id="part3-head"><rect fill="#E2E2F0" height="30.4883" rx="2.5" ry="2.5" style="stroke:#181818;stroke-width:0.5;" width="112.2939" x="419.0928" y="87.4883"/><text fill="#000000" font-family="sans-serif" font-size="14" lengthAdjust="spacing" textLength="98.2939" x="426.0928" y="108.0234">Key Derivation</text></g><g class="participant participant-tail" data-entity-uid="part3" data-qualified-name="KDF" data-source-line="5" id="part3-tail"><rect fill="#E2E2F0" height="30.4883" rx="2.5" ry="2.5" style="stroke:#181818;stroke-width:0.5;" width="112.2939" x="419.0928" y="1006.6035"/><text fill="#000000" font-family="sans-serif" font-size="14" lengthAdjust="spacing" textLength="98.2939" x="426.0928" y="1027.1387">Key Derivation</text></g><g class="participant participant-head" data-entity-uid="part4" data-qualified-name="Enc" data-source-line="6" id="part4-head"><rect fill="#E2E2F0" height="30.4883" rx="2.5" ry="2.5" style="stroke:#181818;stroke-width:0.5;" width="164.1582" x="541.3867" y="87.4883"/><text fill="#000000" font-family="sans-serif" font-size="14" lengthAdjust="spacing" textLength="150.1582" x="548.3867" y="108.0234">Encryption (AES-GCM)</text></g><g class="participant participant-tail" data-entity-uid="part4" data-qualified-name="Enc" data-source-line="6" id="part4-tail"><rect fill="#E2E2F0" height="30.4883" rx="2.5" ry="2.5" style="stroke:#181818;stroke-width:0.5;" width="164.1582" x="541.3867" y="1006.6035"/><text fill="#000000" font-family="sans-serif" font-size="14" lengthAdjust="spacing" textLength="150.1582" x="548.3867" y="1027.1387">Encryption (AES-GCM)</text></g><g class="participant participant-head" data-entity-uid="part5" data-qualified-name="Wrap" data-source-line="7" id="part5-head"><rect fill="#E2E2F0" height="30.4883" rx="2.5" ry="2.5" style="stroke:#181818;stroke-width:0.5;" width="259.3691" x="715.5449" y="87.4883"/><text fill="#000000" font-family="sans-serif" font-size="14" lengthAdjust="spacing" textLength="245.3691" x="722.5449" y="108.0234">Token Wrapper (AES-CTR + Base64)</text></g><g class="participant participant-tail" data-entity-uid="part5" data-qualified-name="Wrap" data-source-line="7" id="part5-tail"><rect fill="#E2E2F0" height="30.4883" rx="2.5" ry="2.5" style="stroke:#181818;stroke-width:0.5;" width="259.3691" x="715.5449" y="1006.6035"/><text fill="#000000" font-family="sans-serif" font-size="14" lengthAdjust="spacing" textLength="245.3691" x="722.5449" y="1027.1387">Token Wrapper (AES-CTR + Base64)</text></g><g class="participant participant-head" data-entity-uid="part6" data-qualified-name="Container" data-source-line="8" id="part6-head"><text fill="#000000" font-family="sans-serif" font-size="14" lengthAdjust="spacing" textLength="96.8311" x="984.9141" y="116.0234">Container .tvlt</text><path d="M1018.3296,66.4883 C1018.3296,56.4883 1036.3296,56.4883 1036.3296,56.4883 C1036.3296,56.4883 1054.3296,56.4883 1054.3296,66.4883 L1054.3296,92.4883 C1054.3296,102.4883 1036.3296,102.4883 1036.3296,102.4883 C1036.3296,102.4883 1018.3296,102.4883 1018.3296,92.4883 L1018.3296,66.4883" fill="#E2E2F0" style="stroke:#181818;stroke-width:0.5;"/><path d="M1018.3296,66.4883 C1018.3296,76.4883 1036.3296,76.4883 1036.3296,76.4883 C1036.3296,76.4883 1054.3296,76.4883 1054.3296,66.4883" fill="none" style="stroke:#181818;stroke-width:0.5;"/></g><g class="participant participant-tail" data-entity-uid="part6" data-qualified-name="Container" data-source-line="8" id="part6-tail"><text fill="#000000" font-family="sans-serif" font-size="14" lengthAdjust="spacing" textLength="96.8311" x="984.9141" y="1020.1387">Container .tvlt</text><path d="M1018.3296,1033.0918 C1018.3296,1023.0918 1036.3296,1023.0918 1036.3296,1023.0918 C1036.3296,1023.0918 1054.3296,1023.0918 1054.3296,1033.0918 L1054.3296,1059.0918 C1054.3296,1069.0918 1036.3296,1069.0918 1036.3296,1069.0918 C1036.3296,1069.0918 1018.3296,1069.0918 1018.3296,1059.0918 L1018.3296,1033.0918" fill="#E2E2F0" style="stroke:#181818;stroke-width:0.5;"/><path d="M1018.3296,1033.0918 C1018.3296,1043.0918 1036.3296,1043.0918 1036.3296,1043.0918 C1036.3296,1043.0918 1054.3296,1043.0918 1054.3296,1033.0918" fill="none" style="stroke:#181818;stroke-width:0.5;"/></g><g class="message" data-entity-1="part1" data-entity-2="part2" data-source-line="10" id="msg1"><polygon fill="#181818" points="212.5396,146.2871,222.5396,150.2871,212.5396,154.2871,216.5396,150.2871" style="stroke:#181818;stroke-width:1;stroke-linejoin:miter;stroke-miterlimit:10;"/><line style="stroke:#181818;stroke-width:1;" x1="37.1826" x2="218.5396" y1="150.2871" y2="150.2871"/><text fill="#000000" font-family="sans-serif" font-size="13" lengthAdjust="spacing" textLength="138.8677" x="44.1826" y="145.5449">select folder with files</text></g><g class="message" data-entity-1="part1" data-entity-2="part2" data-source-line="11" id="msg2"><polygon fill="#181818" points="212.5396,175.5977,222.5396,179.5977,212.5396,183.5977,216.5396,179.5977" style="stroke:#181818;stroke-width:1;stroke-linejoin:miter;stroke-miterlimit:10;"/><line style="stroke:#181818;stroke-width:1;" x1="37.1826" x2="218.5396" y1="179.5977" y2="179.5977"/><text fill="#000000" font-family="sans-serif" font-size="13" lengthAdjust="spacing" textLength="160.2212" x="44.1826" y="174.8555">enter container password</text></g><g class="message" data-entity-1="part1" data-entity-2="part2" data-source-line="12" id="msg3"><polygon fill="#181818" points="212.5396,204.9082,222.5396,208.9082,212.5396,212.9082,216.5396,208.9082" style="stroke:#181818;stroke-width:1;stroke-linejoin:miter;stroke-miterlimit:10;"/><line style="stroke:#181818;stroke-width:1;" x1="37.1826" x2="218.5396" y1="208.9082" y2="208.9082"/><text fill="#000000" font-family="sans-serif" font-size="13" lengthAdjust="spacing" textLength="122.8335" x="44.1826" y="204.166">set token password</text></g><rect fill="#EEEEEE" height="3" style="stroke:#EEEEEE;stroke-width:1;" width="1092.7451" x="0" y="237.5635"/><line style="stroke:#000000;stroke-width:1;" x1="0" x2="1092.7451" y1="237.5635" y2="237.5635"/><line style="stroke:#000000;stroke-width:1;" x1="0" x2="1092.7451" y1="240.5635" y2="240.5635"/><rect fill="#EEEEEE" height="23.3105" style="stroke:#000000;stroke-width:2;" width="159.3867" x="466.6792" y="226.9082"/><text fill="#000000" font-family="sans-serif" font-size="13" font-weight="700" lengthAdjust="spacing" textLength="141.1021" x="472.6792" y="243.4766">Container encryption</text><g class="message" data-entity-1="part2" data-entity-2="part2" data-source-line="16" id="msg4"><line style="stroke:#181818;stroke-width:1;" x1="224.5396" x2="266.5396" y1="281.5293" y2="281.5293"/><line style="stroke:#181818;stroke-width:1;" x1="266.5396" x2="266.5396" y1="281.5293" y2="294.5293"/><line style="stroke:#181818;stroke-width:1;" x1="225.5396" x2="266.5396" y1="294.5293" y2="294.5293"/><polygon fill="#181818" points="235.5396,290.5293,225.5396,294.5293,235.5396,298.5293,231.5396,294.5293" style="stroke:#181818;stroke-width:1;stroke-linejoin:miter;stroke-miterlimit:10;"/><text fill="#000000" font-family="sans-serif" font-size="13" lengthAdjust="spacing" textLength="137.7505" x="231.5396" y="276.7871">pack files into archive</text></g><g class="message" data-entity-1="part2" data-entity-2="part2" data-source-line="17" id="msg5"><line style="stroke:#181818;stroke-width:1;" x1="224.5396" x2="266.5396" y1="323.8398" y2="323.8398"/><line style="stroke:#181818;stroke-width:1;" x1="266.5396" x2="266.5396" y1="323.8398" y2="336.8398"/><line style="stroke:#181818;stroke-width:1;" x1="225.5396" x2="266.5396" y1="336.8398" y2="336.8398"/><polygon fill="#181818" points="235.5396,332.8398,225.5396,336.8398,235.5396,340.8398,231.5396,336.8398" style="stroke:#181818;stroke-width:1;stroke-linejoin:miter;stroke-miterlimit:10;"/><text fill="#000000" font-family="sans-serif" font-size="13" lengthAdjust="spacing" textLength="134.7861" x="231.5396" y="319.0977">generate random salt</text></g><g class="message" data-entity-1="part2" data-entity-2="part3" data-source-line="19" id="msg6"><polygon fill="#181818" points="463.2397,362.1504,473.2397,366.1504,463.2397,370.1504,467.2397,366.1504" style="stroke:#181818;stroke-width:1;stroke-linejoin:miter;stroke-miterlimit:10;"/><line style="stroke:#181818;stroke-width:1;" x1="224.5396" x2="469.2397" y1="366.1504" y2="366.1504"/><text fill="#000000" font-family="sans-serif" font-size="13" lengthAdjust="spacing" textLength="226.7002" x="231.5396" y="361.4082">derive key(container password, salt)</text></g><g class="message" data-entity-1="part3" data-entity-2="part2" data-source-line="20" id="msg7"><polygon fill="#181818" points="235.5396,391.4609,225.5396,395.4609,235.5396,399.4609,231.5396,395.4609" style="stroke:#181818;stroke-width:1;stroke-linejoin:miter;stroke-miterlimit:10;"/><line style="stroke:#181818;stroke-width:1;stroke-dasharray:2,2;" x1="229.5396" x2="474.2397" y1="395.4609" y2="395.4609"/><text fill="#000000" font-family="sans-serif" font-size="13" lengthAdjust="spacing" textLength="127.6895" x="241.5396" y="390.7188">Main Encryption Key</text></g><g class="message" data-entity-1="part2" data-entity-2="part4" data-source-line="22" id="msg8"><polygon fill="#181818" points="611.4658,420.7715,621.4658,424.7715,611.4658,428.7715,615.4658,424.7715" style="stroke:#181818;stroke-width:1;stroke-linejoin:miter;stroke-miterlimit:10;"/><line style="stroke:#181818;stroke-width:1;" x1="224.5396" x2="617.4658" y1="424.7715" y2="424.7715"/><text fill="#000000" font-family="sans-serif" font-size="13" lengthAdjust="spacing" textLength="187.9604" x="231.5396" y="420.0293">encrypt archive with Main Key</text></g><g class="message" data-entity-1="part4" data-entity-2="part2" data-source-line="23" id="msg9"><polygon fill="#181818" points="235.5396,450.082,225.5396,454.082,235.5396,458.082,231.5396,454.082" style="stroke:#181818;stroke-width:1;stroke-linejoin:miter;stroke-miterlimit:10;"/><line style="stroke:#181818;stroke-width:1;stroke-dasharray:2,2;" x1="229.5396" x2="622.4658" y1="454.082" y2="454.082"/><text fill="#000000" font-family="sans-serif" font-size="13" lengthAdjust="spacing" textLength="115.9209" x="241.5396" y="449.3398">encrypted payload</text></g><g class="message" data-entity-1="part2" data-entity-2="part6" data-source-line="25" id="msg10"><polygon fill="#181818" points="1024.3296,494.7031,1034.3296,498.7031,1024.3296,502.7031,1028.3296,498.7031" style="stroke:#181818;stroke-width:1;stroke-linejoin:miter;stroke-miterlimit:10;"/><line style="stroke:#181818;stroke-width:1;" x1="224.5396" x2="1030.3296" y1="498.7031" y2="498.7031"/><text fill="#000000" font-family="sans-serif" font-size="13" lengthAdjust="spacing" textLength="78.5459" x="231.5396" y="478.6504">write header</text><text fill="#000000" font-family="sans-serif" font-size="13" lengthAdjust="spacing" textLength="240.2778" x="231.5396" y="493.9609">(salt, settings, access = master token)</text></g><g class="message" data-entity-1="part2" data-entity-2="part6" data-source-line="26" id="msg11"><polygon fill="#181818" points="1024.3296,524.0137,1034.3296,528.0137,1024.3296,532.0137,1028.3296,528.0137" style="stroke:#181818;stroke-width:1;stroke-linejoin:miter;stroke-miterlimit:10;"/><line style="stroke:#181818;stroke-width:1;" x1="224.5396" x2="1030.3296" y1="528.0137" y2="528.0137"/><text fill="#000000" font-family="sans-serif" font-size="13" lengthAdjust="spacing" textLength="94.1357" x="231.5396" y="523.2715">write metadata</text></g><g class="message" data-entity-1="part2" data-entity-2="part6" data-source-line="27" id="msg12"><polygon fill="#181818" points="1024.3296,553.3242,1034.3296,557.3242,1024.3296,561.3242,1028.3296,557.3242" style="stroke:#181818;stroke-width:1;stroke-linejoin:miter;stroke-miterlimit:10;"/><line style="stroke:#181818;stroke-width:1;" x1="224.5396" x2="1030.3296" y1="557.3242" y2="557.3242"/><text fill="#000000" font-family="sans-serif" font-size="13" lengthAdjust="spacing" textLength="151.2329" x="231.5396" y="552.582">write encrypted payload</text></g><rect fill="#EEEEEE" height="3" style="stroke:#EEEEEE;stroke-width:1;" width="1092.7451" x="0" y="585.9795"/><line style="stroke:#000000;stroke-width:1;" x1="0" x2="1092.7451" y1="585.9795" y2="585.9795"/><line style="stroke:#000000;stroke-width:1;" x1="0" x2="1092.7451" y1="588.9795" y2="588.9795"/><rect fill="#EEEEEE" height="23.3105" style="stroke:#000000;stroke-width:2;" width="168.521" x="462.1121" y="575.3242"/><text fill="#000000" font-family="sans-serif" font-size="13" font-weight="700" lengthAdjust="spacing" textLength="150.2363" x="468.1121" y="591.8926">Master Token creation</text><g class="message" data-entity-1="part2" data-entity-2="part3" data-source-line="31" id="msg13"><polygon fill="#181818" points="463.2397,625.9453,473.2397,629.9453,463.2397,633.9453,467.2397,629.9453" style="stroke:#181818;stroke-width:1;stroke-linejoin:miter;stroke-miterlimit:10;"/><line style="stroke:#181818;stroke-width:1;" x1="224.5396" x2="469.2397" y1="629.9453" y2="629.9453"/><text fill="#000000" font-family="sans-serif" font-size="13" lengthAdjust="spacing" textLength="203.3154" x="231.5396" y="625.2031">derive key(token password, salt)</text></g><g class="message" data-entity-1="part3" data-entity-2="part2" data-source-line="32" id="msg14"><polygon fill="#181818" points="235.5396,655.2559,225.5396,659.2559,235.5396,663.2559,231.5396,659.2559" style="stroke:#181818;stroke-width:1;stroke-linejoin:miter;stroke-miterlimit:10;"/><line style="stroke:#181818;stroke-width:1;stroke-dasharray:2,2;" x1="229.5396" x2="474.2397" y1="659.2559" y2="659.2559"/><text fill="#000000" font-family="sans-serif" font-size="13" lengthAdjust="spacing" textLength="136.6016" x="241.5396" y="654.5137">Token Encryption Key</text></g><g class="message" data-entity-1="part2" data-entity-2="part2" data-source-line="34" id="msg15"><line style="stroke:#181818;stroke-width:1;" x1="224.5396" x2="266.5396" y1="703.877" y2="703.877"/><line style="stroke:#181818;stroke-width:1;" x1="266.5396" x2="266.5396" y1="703.877" y2="716.877"/><line style="stroke:#181818;stroke-width:1;" x1="225.5396" x2="266.5396" y1="716.877" y2="716.877"/><polygon fill="#181818" points="235.5396,712.877,225.5396,716.877,235.5396,720.877,231.5396,716.877" style="stroke:#181818;stroke-width:1;stroke-linejoin:miter;stroke-miterlimit:10;"/><text fill="#000000" font-family="sans-serif" font-size="13" lengthAdjust="spacing" textLength="103.3335" x="231.5396" y="683.8242">build token data</text><text fill="#000000" font-family="sans-serif" font-size="13" lengthAdjust="spacing" textLength="231.9941" x="231.5396" y="699.1348">{ v: version, vl: Main Encryption Key }</text></g><g class="message" data-entity-1="part2" data-entity-2="part5" data-source-line="36" id="msg16"><polygon fill="#181818" points="833.2295,742.1875,843.2295,746.1875,833.2295,750.1875,837.2295,746.1875" style="stroke:#181818;stroke-width:1;stroke-linejoin:miter;stroke-miterlimit:10;"/><line style="stroke:#181818;stroke-width:1;" x1="224.5396" x2="839.2295" y1="746.1875" y2="746.1875"/><text fill="#000000" font-family="sans-serif" font-size="13" lengthAdjust="spacing" textLength="287.7329" x="231.5396" y="741.4453">encrypt token data with Token Key (AES-CTR)</text></g><g class="message" data-entity-1="part5" data-entity-2="part5" data-source-line="37" id="msg17"><line style="stroke:#181818;stroke-width:1;" x1="845.2295" x2="887.2295" y1="775.498" y2="775.498"/><line style="stroke:#181818;stroke-width:1;" x1="887.2295" x2="887.2295" y1="775.498" y2="788.498"/><line style="stroke:#181818;stroke-width:1;" x1="846.2295" x2="887.2295" y1="788.498" y2="788.498"/><polygon fill="#181818" points="856.2295,784.498,846.2295,788.498,856.2295,792.498,852.2295,788.498" style="stroke:#181818;stroke-width:1;stroke-linejoin:miter;stroke-miterlimit:10;"/><text fill="#000000" font-family="sans-serif" font-size="13" lengthAdjust="spacing" textLength="152.3691" x="852.2295" y="770.7559">encode result as Base64</text></g><g class="message" data-entity-1="part5" data-entity-2="part2" data-source-line="38" id="msg18"><polygon fill="#181818" points="235.5396,813.8086,225.5396,817.8086,235.5396,821.8086,231.5396,817.8086" style="stroke:#181818;stroke-width:1;stroke-linejoin:miter;stroke-miterlimit:10;"/><line style="stroke:#181818;stroke-width:1;stroke-dasharray:2,2;" x1="229.5396" x2="844.2295" y1="817.8086" y2="817.8086"/><text fill="#000000" font-family="sans-serif" font-size="13" lengthAdjust="spacing" textLength="85.6553" x="241.5396" y="813.0664">Master Token</text></g><g class="message" data-entity-1="part2" data-entity-2="part1" data-source-line="40" id="msg19"><polygon fill="#181818" points="48.1826,843.1191,38.1826,847.1191,48.1826,851.1191,44.1826,847.1191" style="stroke:#181818;stroke-width:1;stroke-linejoin:miter;stroke-miterlimit:10;"/><line style="stroke:#181818;stroke-width:1;stroke-dasharray:2,2;" x1="42.1826" x2="223.5396" y1="847.1191" y2="847.1191"/><text fill="#000000" font-family="sans-serif" font-size="13" lengthAdjust="spacing" textLength="163.3569" x="54.1826" y="842.377">container + Master Token</text></g><path d="M5,860.1191 L5,992.1191 L1068,992.1191 L1068,870.1191 L1058,860.1191 L5,860.1191" fill="#FEFFDD" style="stroke:#181818;stroke-width:0.5;"/><path d="M1058,860.1191 L1058,870.1191 L1068,870.1191 L1058,860.1191" fill="#FEFFDD" style="stroke:#181818;stroke-width:0.5;"/><text fill="#000000" font-family="sans-serif" font-size="13" lengthAdjust="spacing" textLength="147.0879" x="377.5374" y="877.6875">Master Token contains:</text><text fill="#000000" font-family="sans-serif" font-size="13" lengthAdjust="spacing" textLength="115.0005" x="385.7639" y="892.998">v  = token version</text><text fill="#000000" font-family="sans-serif" font-size="13" lengthAdjust="spacing" textLength="181.2129" x="385.7639" y="908.3086">vl = full Main Encryption Key</text><text fill="#000000" font-family="sans-serif" font-size="13" lengthAdjust="spacing" textLength="4.1133" x="377.5374" y="923.6191">&#160;</text><text fill="#000000" font-family="sans-serif" font-size="13" lengthAdjust="spacing" textLength="178.1025" x="377.5374" y="938.9297">Fields id and s are not used.</text><text fill="#000000" font-family="sans-serif" font-size="13" lengthAdjust="spacing" textLength="4.1133" x="377.5374" y="954.2402">&#160;</text><text fill="#000000" font-family="sans-serif" font-size="13" lengthAdjust="spacing" textLength="244.6958" x="377.5374" y="969.5508">To open the container, the user needs:</text><text fill="#000000" font-family="sans-serif" font-size="13" lengthAdjust="spacing" textLength="309.6704" x="377.5374" y="984.8613">container file + Master Token + token password.</text><?plantuml-src TLGzRnin3DtrAmXFDdBs56Gum0LI9-aGU6bTTCcYdEXOi2mT9FeCe-X_BoNPz-6FyQZ7nyT7yaYJGLZAGEXXvRPeIrWuIr9R3YmyIjBEWhGgly8VB-jQsoyXP4NEm--0NjJIawvqBIt1wBckZQvItWXa0FuU0jxn22_eTTDXtb_UXfXNM_bZdMgFdrz_JNyibfE4v8SXiYUB5IVmOlKJ7k2x3FZqcBFYir2Iv2S7OTHrEAF6K8AqCI5YJp3z5fL32G4DLWHhPnI73vesiDO6mmKCRRImQfbh6SB1UNN5Ha19SWiGytdFS-mwdy-5Y5bjSYshRIuEsf83wQkDRd08-aAcaOJWUMfk1q4QQddOQ8Qew3x25e_ZQy55ofY829ssh4i6GMygFCIMbCF9WFHu5fMTIcaH6p7Jdba9Yugh7esJgkNgZ2ZXu3MtiK79UZ_iECegee74-nSAa5M58S0STdbzawsJ-qGx91btu3xYXYoUJVywe3gVH6yuLwOE1tpRq4ntnz4C-TnheqxR4eL_sB_GbD2W3vnGG6DkpWN-jJnnxtkZwQZoTBA6c7A-cub8AODKftYNCEmDnJl9PtM2zTQZy-XKdT_IwfUzetYu05h7hZjkA46BtX4EJS_XK0g01dZYkP6J4J5eEBZU6tDxJzyq6iKtezAFBF2A8d1fs0TKCo5M3bpDVBJ1JckHFlUn0ukek7RNHZp1YrxuSpZrcK2k5Hly3m00?></g></svg>