<svg xmlns="http://www.w3.org/2000/svg" xmlns:xlink="http://www.w3.org/1999/xlink" contentStyleType="text/css" data-diagram-type="SEQUENCE" height="726px" preserveAspectRatio="none" style="width:826px;height:726px;background:#FFFFFF;" version="1.1" viewBox="0 0 826 726" width="826px" zoomAndPan="magnify"><?plantuml 1.2026.6?><defs/><g><g class="title" data-source-line="1"><text fill="#000000" font-family="sans-serif" font-size="14" font-weight="700" lengthAdjust="spacing" textLength="253.251" x="282.9946" y="28.5352">Password-only: Container Creation</text></g><g class="participant-lifeline" data-entity-uid="part1" data-qualified-name="User" data-source-line="3" id="part1-lifeline"><g><title>User</title><rect fill="#000000" fill-opacity="0.00000" height="524.9004" width="8" x="33.1826" y="118.9766"/><line style="stroke:#181818;stroke-width:0.5;stroke-dasharray:5,5;" x1="37" x2="37" y1="118.9766" y2="643.877"/></g></g><g class="participant-lifeline" data-entity-uid="part2" data-qualified-name="App" data-source-line="4" id="part2-lifeline"><g><title>Application</title><rect fill="#000000" fill-opacity="0.00000" height="524.9004" width="8" x="217.4038" y="118.9766"/><line style="stroke:#181818;stroke-width:0.5;stroke-dasharray:5,5;" x1="220.979" x2="220.979" y1="118.9766" y2="643.877"/></g></g><g class="participant-lifeline" data-entity-uid="part3" data-qualified-name="KDF" data-source-line="5" id="part3-lifeline"><g><title>Key Derivation</title><rect fill="#000000" fill-opacity="0.00000" height="524.9004" width="8" x="468.104" y="118.9766"/><line style="stroke:#181818;stroke-width:0.5;stroke-dasharray:5,5;" x1="471.957" x2="471.957" y1="118.9766" y2="643.877"/></g></g><g class="participant-lifeline" data-entity-uid="part4" data-qualified-name="Enc" data-source-line="6" id="part4-lifeline"><g><title>Encryption .AES-GCM.</title><rect fill="#000000" fill-opacity="0.00000" height="524.9004" width="8" x="616.3301" y="118.9766"/><line style="stroke:#181818;stroke-width:0.5;stroke-dasharray:5,5;" x1="620.251" x2="620.251" y1="118.9766" y2="643.877"/></g></g><g class="participant-lifeline" data-entity-uid="part5" data-qualified-name="Container" data-source-line="7" id="part5-lifeline"><g><title>Container .tvlt</title><rect fill="#000000" fill-opacity="0.00000" height="524.9004" width="8" x="759.8247" y="118.9766"/><line style="stroke:#181818;stroke-width:0.5;stroke-dasharray:5,5;" x1="763.4092" x2="763.4092" y1="118.9766" y2="643.877"/></g></g><g class="participant participant-head" data-entity-uid="part1" data-qualified-name="User" data-source-line="3" id="part1-head"><text fill="#000000" font-family="sans-serif" font-size="14" lengthAdjust="spacing" textLength="30.3652" x="19" y="116.0234">User</text><ellipse cx="37.1826" cy="50.9883" fill="#E2E2F0" rx="8" ry="8" style="stroke:#181818;stroke-width:0.5;"/><path d="M37.1826,58.9883 L37.1826,85.9883 M24.1826,66.9883 L50.1826,66.9883 M37.1826,85.9883 L24.1826,100.9883 M37.1826,85.9883 L50.1826,100.9883" fill="none" style="stroke:#181818;stroke-width:0.5;"/></g><g class="participant participant-tail" data-entity-uid="part1" data-qualified-name="User" data-source-line="3" id="part1-tail"><text fill="#000000" font-family="sans-serif" font-size="14" lengthAdjust="spacing" textLength="30.3652" x="19" y="656.4121">User</text><ellipse cx="37.1826" cy="667.8652" fill="#E2E2F0" rx="8" ry="8" style="stroke:#181818;stroke-width:0.5;"/><path d="M37.1826,675.8652 L37.1826,702.8652 M24.1826,683.8652 L50.1826,683.8652 M37.1826,702.8652 L24.1826,717.8652 M37.1826,702.8652 L50.1826,717.8652" fill="none" style="stroke:#181818;stroke-width:0.5;"/></g><g class="participant participant-head" data-entity-uid="part2" data-qualified-name="App" data-source-line="4" id="part2-head"><rect fill="#E2E2F0" height="30.4883" rx="2.5" ry="2.5" style="stroke:#181818;stroke-width:0.5;" width="90.8496" x="175.979" y="87.4883"/><text fill="#000000" font-family="sans-serif" font-size="14" lengthAdjust="spacing" textLength="76.8496" x="182.979" y="108.0234">Application</text></g><g class="participant participant-tail" data-entity-uid="part2" data-qualified-name="App" data-source-line="4" id="part2-tail"><rect fill="#E2E2F0" height="30.4883" rx="2.5" ry="2.5" style="stroke:#181818;stroke-width:0.5;" width="90.8496" x="175.979" y="642.877"/><text fill="#000000" font-family="sans-serif" font-size="14" lengthAdjust="spacing" textLength="76.8496" x="182.979" y="663.4121">Application</text></g><g class="participant participant-head" data-entity-uid="part3" data-qualified-name="KDF" data-source-line="5" id="part3-head"><rect fill="#E2E2F0" height="30.4883" rx="2.5" ry="2.5" style="stroke:#181818;stroke-width:0.5;" width="112.2939" x="415.957" y="87.4883"/><text fill="#000000" font-family="sans-serif" font-size="14" lengthAdjust="spacing" textLength="98.2939" x="422.957" y="108.0234">Key Derivation</text></g><g class="participant participant-tail" data-entity-uid="part3" data-qualified-name="KDF" data-source-line="5" id="part3-tail"><rect fill="#E2E2F0" height="30.4883" rx="2.5" ry="2.5" style="stroke:#181818;stroke-width:0.5;" width="112.2939" x="415.957" y="642.877"/><text fill="#000000" font-family="sans-serif" font-size="14" lengthAdjust="spacing" textLength="98.2939" x="422.957" y="663.4121">Key Derivation</text></g><g class="participant participant-head" data-entity-uid="part4" data-qualified-name="Enc" data-source-line="6" id="part4-head"><rect fill="#E2E2F0" height="30.4883" rx="2.5" ry="2.5" style="stroke:#181818;stroke-width:0.5;" width="164.1582" x="538.251" y="87.4883"/><text fill="#000000" font-family="sans-serif" font-size="14" lengthAdjust="spacing" textLength="150.1582" x="545.251" y="108.0234">Encryption (AES-GCM)</text></g><g class="participant participant-tail" data-entity-uid="part4" data-qualified-name="Enc" data-source-line="6" id="part4-tail"><rect fill="#E2E2F0" height="30.4883" rx="2.5" ry="2.5" style="stroke:#181818;stroke-width:0.5;" width="164.1582" x="538.251" y="642.877"/><text fill="#000000" font-family="sans-serif" font-size="14" lengthAdjust="spacing" textLength="150.1582" x="545.251" y="663.4121">Encryption (AES-GCM)</text></g><g class="participant participant-head" data-entity-uid="part5" data-qualified-name="Container" data-source-line="7" id="part5-head"><text fill="#000000" font-family="sans-serif" font-size="14" lengthAdjust="spacing" textLength="96.8311" x="712.4092" y="116.0234">Container .tvlt</text><path d="M745.8247,66.4883 C745.8247,56.4883 763.8247,56.4883 763.8247,56.4883 C763.8247,56.4883 781.8247,56.4883 781.8247,66.4883 L781.8247,92.4883 C781.8247,102.4883 763.8247,102.4883 763.8247,102.4883 C763.8247,102.4883 745.8247,102.4883 745.8247,92.4883 L745.8247,66.4883" fill="#E2E2F0" style="stroke:#181818;stroke-width:0.5;"/><path d="M745.8247,66.4883 C745.8247,76.4883 763.8247,76.4883 763.8247,76.4883 C763.8247,76.4883 781.8247,76.4883 781.8247,66.4883" fill="none" style="stroke:#181818;stroke-width:0.5;"/></g><g class="participant participant-tail" data-entity-uid="part5" data-qualified-name="Container" data-source-line="7" id="part5-tail"><text fill="#000000" font-family="sans-serif" font-size="14" lengthAdjust="spacing" textLength="96.8311" x="712.4092" y="656.4121">Container .tvlt</text><path d="M745.8247,669.3652 C745.8247,659.3652 763.8247,659.3652 763.8247,659.3652 C763.8247,659.3652 781.8247,659.3652 781.8247,669.3652 L781.8247,695.3652 C781.8247,705.3652 763.8247,705.3652 763.8247,705.3652 C763.8247,705.3652 745.8247,705.3652 745.8247,695.3652 L745.8247,669.3652" fill="#E2E2F0" style="stroke:#181818;stroke-width:0.5;"/><path d="M745.8247,669.3652 C745.8247,679.3652 763.8247,679.3652 763.8247,679.3652 C763.8247,679.3652 781.8247,679.3652 781.8247,669.3652" fill="none" style="stroke:#181818;stroke-width:0.5;"/></g><g class="message" data-entity-1="part1" data-entity-2="part2" data-source-line="9" id="msg1"><polygon fill="#181818" points="209.4038,146.2871,219.4038,150.2871,209.4038,154.2871,213.4038,150.2871" style="stroke:#181818;stroke-width:1;stroke-linejoin:miter;stroke-miterlimit:10;"/><line style="stroke:#181818;stroke-width:1;" x1="37.1826" x2="215.4038" y1="150.2871" y2="150.2871"/><text fill="#000000" font-family="sans-serif" font-size="13" lengthAdjust="spacing" textLength="138.8677" x="44.1826" y="145.5449">select folder with files</text></g><g class="message" data-entity-1="part1" data-entity-2="part2" data-source-line="10" id="msg2"><polygon fill="#181818" points="209.4038,175.5977,219.4038,179.5977,209.4038,183.5977,213.4038,179.5977" style="stroke:#181818;stroke-width:1;stroke-linejoin:miter;stroke-miterlimit:10;"/><line style="stroke:#181818;stroke-width:1;" x1="37.1826" x2="215.4038" y1="179.5977" y2="179.5977"/><text fill="#000000" font-family="sans-serif" font-size="13" lengthAdjust="spacing" textLength="160.2212" x="44.1826" y="174.8555">enter container password</text></g><g class="message" data-entity-1="part2" data-entity-2="part2" data-source-line="12" id="msg3"><line style="stroke:#181818;stroke-width:1;" x1="221.4038" x2="263.4038" y1="208.9082" y2="208.9082"/><line style="stroke:#181818;stroke-width:1;" x1="263.4038" x2="263.4038" y1="208.9082" y2="221.9082"/><line style="stroke:#181818;stroke-width:1;" x1="222.4038" x2="263.4038" y1="221.9082" y2="221.9082"/><polygon fill="#181818" points="232.4038,217.9082,222.4038,221.9082,232.4038,225.9082,228.4038,221.9082" style="stroke:#181818;stroke-width:1;stroke-linejoin:miter;stroke-miterlimit:10;"/><text fill="#000000" font-family="sans-serif" font-size="13" lengthAdjust="spacing" textLength="137.7505" x="228.4038" y="204.166">pack files into archive</text></g><g class="message" data-entity-1="part2" data-entity-2="part2" data-source-line="14" id="msg4"><line style="stroke:#181818;stroke-width:1;" x1="221.4038" x2="263.4038" y1="251.2188" y2="251.2188"/><line style="stroke:#181818;stroke-width:1;" x1="263.4038" x2="263.4038" y1="251.2188" y2="264.2188"/><line style="stroke:#181818;stroke-width:1;" x1="222.4038" x2="263.4038" y1="264.2188" y2="264.2188"/><polygon fill="#181818" points="232.4038,260.2188,222.4038,264.2188,232.4038,268.2188,228.4038,264.2188" style="stroke:#181818;stroke-width:1;stroke-linejoin:miter;stroke-miterlimit:10;"/><text fill="#000000" font-family="sans-serif" font-size="13" lengthAdjust="spacing" textLength="134.7861" x="228.4038" y="246.4766">generate random salt</text></g><g class="message" data-entity-1="part2" data-entity-2="part3" data-source-line="15" id="msg5"><polygon fill="#181818" points="460.104,289.5293,470.104,293.5293,460.104,297.5293,464.104,293.5293" style="stroke:#181818;stroke-width:1;stroke-linejoin:miter;stroke-miterlimit:10;"/><line style="stroke:#181818;stroke-width:1;" x1="221.4038" x2="466.104" y1="293.5293" y2="293.5293"/><text fill="#000000" font-family="sans-serif" font-size="13" lengthAdjust="spacing" textLength="226.7002" x="228.4038" y="288.7871">derive key(container password, salt)</text></g><g class="message" data-entity-1="part3" data-entity-2="part2" data-source-line="16" id="msg6"><polygon fill="#181818" points="232.4038,318.8398,222.4038,322.8398,232.4038,326.8398,228.4038,322.8398" style="stroke:#181818;stroke-width:1;stroke-linejoin:miter;stroke-miterlimit:10;"/><line style="stroke:#181818;stroke-width:1;stroke-dasharray:2,2;" x1="226.4038" x2="471.104" y1="322.8398" y2="322.8398"/><text fill="#000000" font-family="sans-serif" font-size="13" lengthAdjust="spacing" textLength="127.6895" x="238.4038" y="318.0977">Main Encryption Key</text></g><g class="message" data-entity-1="part2" data-entity-2="part4" data-source-line="18" id="msg7"><polygon fill="#181818" points="608.3301,348.1504,618.3301,352.1504,608.3301,356.1504,612.3301,352.1504" style="stroke:#181818;stroke-width:1;stroke-linejoin:miter;stroke-miterlimit:10;"/><line style="stroke:#181818;stroke-width:1;" x1="221.4038" x2="614.3301" y1="352.1504" y2="352.1504"/><text fill="#000000" font-family="sans-serif" font-size="13" lengthAdjust="spacing" textLength="187.9604" x="228.4038" y="347.4082">encrypt archive with Main Key</text></g><g class="message" data-entity-1="part4" data-entity-2="part2" data-source-line="19" id="msg8"><polygon fill="#181818" points="232.4038,377.4609,222.4038,381.4609,232.4038,385.4609,228.4038,381.4609" style="stroke:#181818;stroke-width:1;stroke-linejoin:miter;stroke-miterlimit:10;"/><line style="stroke:#181818;stroke-width:1;stroke-dasharray:2,2;" x1="226.4038" x2="619.3301" y1="381.4609" y2="381.4609"/><text fill="#000000" font-family="sans-serif" font-size="13" lengthAdjust="spacing" textLength="115.9209" x="238.4038" y="376.7188">encrypted payload</text></g><g class="message" data-entity-1="part2" data-entity-2="part5" data-source-line="21" id="msg9"><polygon fill="#181818" points="751.8247,422.082,761.8247,426.082,751.8247,430.082,755.8247,426.082" style="stroke:#181818;stroke-width:1;stroke-linejoin:miter;stroke-miterlimit:10;"/><line style="stroke:#181818;stroke-width:1;" x1="221.4038" x2="757.8247" y1="426.082" y2="426.082"/><text fill="#000000" font-family="sans-serif" font-size="13" lengthAdjust="spacing" textLength="78.5459" x="228.4038" y="406.0293">write header</text><text fill="#000000" font-family="sans-serif" font-size="13" lengthAdjust="spacing" textLength="251.2847" x="228.4038" y="421.3398">(salt, settings, access = password-only)</text></g><g class="message" data-entity-1="part2" data-entity-2="part5" data-source-line="22" id="msg10"><polygon fill="#181818" points="751.8247,466.7031,761.8247,470.7031,751.8247,474.7031,755.8247,470.7031" style="stroke:#181818;stroke-width:1;stroke-linejoin:miter;stroke-miterlimit:10;"/><line style="stroke:#181818;stroke-width:1;" x1="221.4038" x2="757.8247" y1="470.7031" y2="470.7031"/><text fill="#000000" font-family="sans-serif" font-size="13" lengthAdjust="spacing" textLength="94.1357" x="228.4038" y="450.6504">write metadata</text><text fill="#000000" font-family="sans-serif" font-size="13" lengthAdjust="spacing" textLength="187.7192" x="228.4038" y="465.9609">(name, dates, comment, tags)</text></g><g class="message" data-entity-1="part2" data-entity-2="part5" data-source-line="23" id="msg11"><polygon fill="#181818" points="751.8247,496.0137,761.8247,500.0137,751.8247,504.0137,755.8247,500.0137" style="stroke:#181818;stroke-width:1;stroke-linejoin:miter;stroke-miterlimit:10;"/><line style="stroke:#181818;stroke-width:1;" x1="221.4038" x2="757.8247" y1="500.0137" y2="500.0137"/><text fill="#000000" font-family="sans-serif" font-size="13" lengthAdjust="spacing" textLength="151.2329" x="228.4038" y="495.2715">write encrypted payload</text></g><g class="message" data-entity-1="part2" data-entity-2="part1" data-source-line="25" id="msg12"><polygon fill="#181818" points="48.1826,525.3242,38.1826,529.3242,48.1826,533.3242,44.1826,529.3242" style="stroke:#181818;stroke-width:1;stroke-linejoin:miter;stroke-miterlimit:10;"/><line style="stroke:#181818;stroke-width:1;stroke-dasharray:2,2;" x1="42.1826" x2="220.4038" y1="529.3242" y2="529.3242"/><text fill="#000000" font-family="sans-serif" font-size="13" lengthAdjust="spacing" textLength="109.9414" x="54.1826" y="524.582">container created</text></g><path d="M5,542.3242 L5,628.3242 L796,628.3242 L796,552.3242 L786,542.3242 L5,542.3242" fill="#FEFFDD" style="stroke:#181818;stroke-width:0.5;"/><path d="M786,542.3242 L786,552.3242 L796,552.3242 L786,542.3242" fill="#FEFFDD" style="stroke:#181818;stroke-width:0.5;"/><text fill="#000000" font-family="sans-serif" font-size="13" lengthAdjust="spacing" textLength="126.8706" x="258.5918" y="559.8926">No token is created.</text><text fill="#000000" font-family="sans-serif" font-size="13" lengthAdjust="spacing" textLength="4.1133" x="258.5918" y="575.2031">&#160;</text><text fill="#000000" font-family="sans-serif" font-size="13" lengthAdjust="spacing" textLength="275.0566" x="258.5918" y="590.5137">To open the container later, the user enters</text><text fill="#000000" font-family="sans-serif" font-size="13" lengthAdjust="spacing" textLength="238.5957" x="258.5918" y="605.8242">the same password, and the Main Key</text><text fill="#000000" font-family="sans-serif" font-size="13" lengthAdjust="spacing" textLength="150.7378" x="258.5918" y="621.1348">is derived again from it.</text><?plantuml-src VPBDRi8m3CVlUGgB4qWj3u2qIGZO3eXfqhRRBbvgIaIQL8a7wjlF2QCK9dQq_RFzzmSRjWIl6EFHXwhqpdOpM7Z7Q1m5M0H2DjufXPfzW8z8GRKOs6ZJecCOpTlM6fsX4M04iQ-1DNMmf60E5sQzVBfcLaw7harn6CzNR-NpOZF9f0HKXOnV60b65rrJFbZEHEzJAec3yZ59W1b4igGPjjvMuZuQti7MM8et63aMK_ULszzLA9NYFTQYtf_omJZsW47lp85kg9ga1391G5Vv1Y9QFXCoj11LsWJ1dhhntvv5JfYeX9PzqOr0CDYGBBHlA-uyGmwUHPs6pMc9JKmvc3UpL4dNpdgy37hPxWoEmSWKEqBH--d6IPQ88sRZwbW0QaqnmaElF3_Ev7wbXXZJ7QMMmuOA48EaaFPD8nSeWB6E_-JVKormFkTiS46TVfQ4S5uo_O5ERriCNkN50_izEJ3nZ4-LUlVWMt7oZWRbh4GbEJc_KwlyC54bEyeeW-F9pJFMRrwgd-vT0TR9kGto58QdYWHDydu0?></g></svg>